<svg aria-hidden="true" style="position: absolute; width: 0; height: 0; overflow: hidden;" version="1.1" xmlns="http://www.w3.org/2000/svg" xmlns:xlink="http://www.w3.org/1999/xlink">
<defs>
<symbol id="icon-facebook-1" viewBox="0 0 32 32">
<path d="M21.329 5.313h2.921v-5.088c-0.504-0.069-2.237-0.225-4.256-0.225-4.212 0-7.097 2.649-7.097 7.519v4.481h-4.648v5.688h4.648v14.312h5.699v-14.311h4.46l0.708-5.688h-5.169v-3.919c0.001-1.644 0.444-2.769 2.735-2.769v0z"></path>
</symbol>
<symbol id="icon-instagram-2" viewBox="0 0 32 32">
<path d="M26.646 6.272c-0.050-1.134-0.233-1.913-0.496-2.588-0.271-0.717-0.688-1.358-1.234-1.892-0.533-0.542-1.179-0.963-1.888-1.229-0.679-0.263-1.454-0.446-2.588-0.496-1.142-0.054-1.505-0.067-4.401-0.067s-3.259 0.013-4.397 0.063c-1.134 0.050-1.913 0.233-2.588 0.496-0.717 0.271-1.359 0.688-1.892 1.234-0.542 0.533-0.963 1.179-1.229 1.888-0.263 0.679-0.446 1.454-0.496 2.588-0.054 1.142-0.067 1.505-0.067 4.401s0.013 3.259 0.063 4.397c0.050 1.134 0.233 1.913 0.496 2.588 0.271 0.717 0.692 1.358 1.233 1.892 0.533 0.542 1.179 0.963 1.888 1.229 0.679 0.263 1.454 0.446 2.588 0.496 1.138 0.050 1.5 0.063 4.397 0.063s3.259-0.012 4.397-0.063c1.133-0.050 1.913-0.233 2.588-0.496 1.434-0.554 2.567-1.688 3.122-3.121 0.262-0.679 0.446-1.455 0.496-2.588 0.050-1.138 0.063-1.5 0.063-4.397s-0.004-3.259-0.054-4.397zM24.725 14.982c-0.046 1.042-0.221 1.605-0.367 1.98-0.359 0.929-1.096 1.667-2.025 2.025-0.375 0.146-0.942 0.321-1.98 0.367-1.125 0.050-1.463 0.063-4.309 0.063s-3.188-0.012-4.309-0.063c-1.042-0.046-1.604-0.221-1.98-0.367-0.463-0.171-0.883-0.442-1.225-0.796-0.354-0.346-0.625-0.763-0.796-1.225-0.146-0.375-0.321-0.942-0.367-1.979-0.050-1.125-0.063-1.463-0.063-4.309s0.012-3.188 0.063-4.309c0.046-1.042 0.221-1.604 0.367-1.98 0.171-0.463 0.442-0.883 0.8-1.225 0.346-0.354 0.762-0.625 1.225-0.796 0.375-0.146 0.942-0.321 1.98-0.367 1.125-0.050 1.463-0.063 4.309-0.063 2.851 0 3.188 0.013 4.309 0.063 1.042 0.046 1.605 0.221 1.98 0.367 0.462 0.171 0.883 0.442 1.225 0.796 0.354 0.346 0.625 0.763 0.796 1.225 0.146 0.375 0.321 0.942 0.367 1.98 0.050 1.125 0.063 1.463 0.063 4.309s-0.013 3.18-0.063 4.305z"></path>
<path d="M16.040 5.188c-3.025 0-5.48 2.455-5.48 5.48s2.455 5.48 5.48 5.48c3.026 0 5.48-2.455 5.48-5.48s-2.455-5.48-5.48-5.48zM16.040 14.223c-1.963 0-3.555-1.592-3.555-3.555s1.592-3.555 3.555-3.555c1.963 0 3.555 1.592 3.555 3.555s-1.592 3.555-3.555 3.555v0z"></path>
<path d="M23.016 4.972c0 0.707-0.573 1.279-1.28 1.279s-1.279-0.573-1.279-1.279c0-0.707 0.573-1.279 1.279-1.279s1.28 0.573 1.28 1.279v0z"></path>
</symbol>
<symbol id="icon-linkedin-1" viewBox="0 0 32 32">
<path d="M31.992 32v-0.001h0.008v-11.736c0-5.741-1.236-10.164-7.948-10.164-3.227 0-5.392 1.771-6.276 3.449h-0.093v-2.913h-6.364v21.364h6.627v-10.579c0-2.785 0.528-5.479 3.977-5.479 3.399 0 3.449 3.179 3.449 5.657v10.401h6.62z"></path>
<path d="M0.528 10.636h6.635v21.364h-6.635v-21.364z"></path>
<path d="M3.843-0c-2.121 0-3.843 1.721-3.843 3.843s1.721 3.879 3.843 3.879c2.121 0 3.843-1.757 3.843-3.879-0.001-2.121-1.723-3.843-3.843-3.843v0z"></path>
</symbol>
<symbol id="icon-twitter-1" viewBox="0 0 32 32">
<path d="M32 6.078c-1.19 0.522-2.458 0.868-3.78 1.036 1.36-0.812 2.398-2.088 2.886-3.626-1.268 0.756-2.668 1.29-4.16 1.588-1.204-1.282-2.92-2.076-4.792-2.076-3.632 0-6.556 2.948-6.556 6.562 0 0.52 0.044 1.020 0.152 1.496-5.454-0.266-10.28-2.88-13.522-6.862-0.566 0.982-0.898 2.106-0.898 3.316 0 2.272 1.17 4.286 2.914 5.452-1.054-0.020-2.088-0.326-2.964-0.808 0 0.020 0 0.046 0 0.072 0 3.188 2.274 5.836 5.256 6.446-0.534 0.146-1.116 0.216-1.72 0.216-0.42 0-0.844-0.024-1.242-0.112 0.85 2.598 3.262 4.508 6.13 4.57-2.232 1.746-5.066 2.798-8.134 2.798-0.538 0-1.054-0.024-1.57-0.090 2.906 1.874 6.35 2.944 10.064 2.944 12.072 0 18.672-10 18.672-18.668 0-0.29-0.010-0.57-0.024-0.848 1.302-0.924 2.396-2.078 3.288-3.406z"></path>
</symbol>
</defs>
</svg>
